<?xml version="1.0" encoding="utf-8"?>
<!-- Generator: Adobe Illustrator 13.0.0, SVG Export Plug-In . SVG Version: 6.00 Build 14948)  -->
<svg version="1.2" baseProfile="tiny" id="Layer_1" xmlns="http://www.w3.org/2000/svg" xmlns:xlink="http://www.w3.org/1999/xlink"
	 x="0px" y="0px" width="484.006px" height="230.512px" viewBox="0 0 484.006 230.512" xml:space="preserve">
<g>
	<path fill="#0289C9" d="M85.583,79.807c-1.564-0.448-3.238-0.656-4.979-0.698C88.838,81.167,98.147,83.41,85.583,79.807
		L85.583,79.807z M81.858,81.998c-4.561-1.139-4.614-11.171-4.614-11.171s-28.403,5.631-44.075,20.68l9.014,6.919
		C52.676,88.568,68.499,77.617,81.858,81.998L81.858,81.998z"/>
	<path fill="#0289C9" d="M51.726,68.057c-3.396-1.863-6.809-3.804-10.205-5.81C14.457,46.263-2.394,31.573,0.277,26.891
		c11.211,0.911,35.644,10.91,60.393,24.791c1.146-25.876,51.111-29.366,129.246-5.308c98.206,30.239,180.665,89.929,212.514,136.503
		c31.848,46.572,1.023,62.391-97.184,32.154c-96.11-29.594-199.093-89.855-233.3-136.068L51.726,68.057L51.726,68.057z"/>
	<path fill="#012D6C" d="M394.011,230.511c49.703,0,89.995-42.404,89.995-94.715c0-52.309-40.292-94.714-89.995-94.714
		s-89.995,42.406-89.995,94.714C304.016,188.106,344.308,230.511,394.011,230.511L394.011,230.511z"/>
	<path fill="#0289C9" d="M394.011,230.511c49.703,0,89.995-40.291,89.995-89.994s-40.292-89.995-89.995-89.995
		s-89.995,40.292-89.995,89.995S344.308,230.511,394.011,230.511L394.011,230.511z"/>
	<path fill="#1164AA" d="M394.011,230.511c37.98,0,70.464-23.528,83.675-56.804L323.36,84.769
		c-12.113,15.33-19.345,34.693-19.345,55.748C304.016,190.22,344.308,230.511,394.011,230.511z"/>
	<path fill="#02CAEB" d="M367.845,144.319h9.206c1.301,2.701,2.101,5.703,2.101,9.205c0,6.203-5.903,12.908-10.806,16.211
		l5.303,8.104c2.501-2.1,6.704-3.402,10.106-3.402c3.701,0,7.203,1.002,10.506,2.002c3.401,0.5,6.704,1.5,9.905,1.5
		c6.505,0,11.008-1.301,16.011-5.602l-5.104-7.705c-2.802,2.4-6.004,3.801-9.706,3.801c-3.002,0-5.203-0.898-7.403-1.801
		c-2.303-0.799-4.703-1.701-8.105-1.701c-3.302,0-6.204,1.502-9.206,2.703l-0.2-0.201c5.403-4.002,10.106-9.105,10.106-16.408
		c0-2.604-0.6-4.805-1.602-6.705h12.309v-6.504h-14.709c-2.103-3.902-4.604-8.906-4.604-13.51c0-7.504,5.003-11.707,11.107-11.707
		c9.706,0,13.107,6.605,13.508,15.21h11.407c-0.101-16.511-9.806-24.716-25.115-24.716c-11.608,0-23.415,8.105-23.415,20.613
		c0,4.803,1.701,10.406,4.703,14.109h-6.304V144.319L367.845,144.319z"/>
	<path fill="#00AFDA" d="M379.151,153.524c0,6.203-5.903,12.908-10.806,16.211l5.303,8.104c2.501-2.1,6.704-3.402,10.106-3.402
		c3.701,0,7.203,1.002,10.506,2.002c3.401,0.5,6.704,1.5,9.905,1.5c6.505,0,11.008-1.301,16.011-5.602l-5.104-7.705
		c-2.802,2.4-6.004,3.801-9.706,3.801c-3.002,0-5.203-0.898-7.403-1.801c-2.303-0.799-4.703-1.701-8.105-1.701
		c-3.302,0-6.204,1.502-9.206,2.703l-0.2-0.201c5.403-4.002,10.106-9.105,10.106-16.408c0-2.604-0.6-4.805-1.602-6.705h12.309
		v-6.504h-14.709c-2.103-3.902-4.604-8.906-4.604-13.51c0-1.696,0.268-3.214,0.733-4.562l-10.394-5.967
		c-1.788,2.853-2.848,6.192-2.848,9.93c0,4.803,1.701,10.406,4.703,14.109h-6.304v6.504h9.206
		C378.352,147.021,379.151,150.022,379.151,153.524z"/>
	<path fill="#1164AA" d="M472.054,140.517c0-43.102-34.941-78.042-78.043-78.042c-43.103,0-78.043,34.94-78.043,78.042
		c0,43.102,34.94,78.043,78.043,78.043C437.112,218.56,472.054,183.618,472.054,140.517L472.054,140.517z M462.688,140.517
		c0,37.93-30.748,68.678-68.678,68.678s-68.677-30.748-68.677-68.678c0-37.929,30.747-68.677,68.677-68.677
		S462.688,102.587,462.688,140.517L462.688,140.517z"/>
	<path fill="#0289C9" d="M333.873,90.828c-6.705,8.104-11.818,17.571-14.824,27.941l6.651,2.973l0.908-0.031
		c0.108-0.404,1.307,0.117,1.423-0.283c2.793-9.667,7.663-18.448,14.079-25.853L333.873,90.828L333.873,90.828z"/>
	<path fill="#0289C9" d="M323.619,124.556c2.609,0,4.724-2.113,4.724-4.721c0-2.609-2.114-4.724-4.724-4.724
		c-2.607,0-4.722,2.114-4.722,4.724C318.897,122.442,321.012,124.556,323.619,124.556L323.619,124.556z"/>
	<path fill="#0289C9" d="M321.159,138.712c2.608,0,4.723-2.115,4.723-4.723s-2.114-4.723-4.723-4.723
		c-2.607,0-4.723,2.115-4.723,4.723S318.552,138.712,321.159,138.712L321.159,138.712z"/>
	<path fill="#53F8FC" d="M402.762,14.416c12.145-12.145,27.227-17.267,35.964-12.847c4.42,8.737-0.702,23.819-12.847,35.964
		c-12.146,12.145-27.228,17.267-35.965,12.847C385.494,41.643,390.616,26.561,402.762,14.416L402.762,14.416z"/>
	<g>
		<path fill="#3BD8E9" d="M436.393,23.219c0.906-1.802,1.651-3.591,2.247-5.349h-16.517l-5.349,5.349H436.393z"/>
		<path fill="#3BD8E9" d="M423.69,39.611c0.738-0.669,1.47-1.36,2.188-2.079c1.067-1.067,2.061-2.164,3.018-3.27h-23.165
			l-5.35,5.349H423.69z"/>
		<path fill="#3BD8E9" d="M422.123,17.871l16.391-16.391c-8.767-4.239-23.701,0.885-35.752,12.936
			c-12.052,12.051-17.176,26.986-12.937,35.752l10.557-10.557l5.35-5.349l11.043-11.043L422.123,17.871z"/>
	</g>
</g>
</svg>
